<?xml version="1.0" standalone="no"?>
<!DOCTYPE svg PUBLIC "-//W3C//DTD SVG 20010904//EN"
 "http://www.w3.org/TR/2001/REC-SVG-20010904/DTD/svg10.dtd">
<svg version="1.0" xmlns="http://www.w3.org/2000/svg"
 width="512.000000pt" height="512.000000pt" viewBox="0 0 512.000000 512.000000"
 preserveAspectRatio="xMidYMid meet">
<metadata>
Created by potrace 1.11, written by Peter Selinger 2001-2013
</metadata>
<g transform="translate(0.000000,512.000000) scale(0.100000,-0.100000)"
fill="#000000" stroke="none">
<path d="M110 5112 c-8 -3 -17 -8 -20 -11 -3 -3 -14 -11 -25 -17 -11 -6 -30
-28 -42 -50 -22 -38 -23 -48 -22 -296 1 -189 4 -256 13 -251 7 5 7 2 -1 -8 -9
-11 -12 -414 -12 -1707 -1 -1868 -5 -1747 62 -1788 31 -18 63 -19 1022 -24
l991 -5 -47 -240 c-26 -132 -50 -253 -52 -270 -3 -16 -17 -86 -31 -154 -14
-68 -26 -125 -26 -127 0 -2 -128 -4 -285 -4 -190 0 -292 -4 -309 -11 -31 -14
-49 -57 -40 -94 14 -57 -36 -55 1278 -55 862 0 1212 3 1229 11 59 27 60 106 2
133 -28 13 -78 16 -314 16 -155 0 -281 2 -281 4 0 3 -7 38 -16 78 -8 40 -17
82 -19 93 -6 38 -45 241 -83 430 l-38 190 990 5 c951 5 992 6 1022 24 69 42
64 -125 64 2060 l0 1973 -22 33 c-13 18 -39 41 -58 52 -34 18 -113 18 -2475
17 -1342 -1 -2447 -4 -2455 -7z"/>
</g>
</svg>
